<svg width="24" height="25" viewBox="0 0 24 25" fill="none" xmlns="http://www.w3.org/2000/svg">
<g id="attachment" clip-path="url(#clip0_114_991)">
<path id="Vector" d="M18.5 16.5H7C4.79 16.5 3 14.71 3 12.5C3 10.29 4.79 8.5 7 8.5H19.5C20.88 8.5 22 9.62 22 11C22 12.38 20.88 13.5 19.5 13.5H9C8.45 13.5 8 13.05 8 12.5C8 11.95 8.45 11.5 9 11.5H18.5V10H9C7.62 10 6.5 11.12 6.5 12.5C6.5 13.88 7.62 15 9 15H19.5C21.71 15 23.5 13.21 23.5 11C23.5 8.79 21.71 7 19.5 7H7C3.96 7 1.5 9.46 1.5 12.5C1.5 15.54 3.96 18 7 18H18.5V16.5Z" fill="#323232"/>
</g>
<defs>
<clipPath id="clip0_114_991">
<rect width="24" height="24" fill="white" transform="translate(0 0.5)"/>
</clipPath>
</defs>
</svg>
