<svg width="33" height="33" viewBox="0 0 33 33" fill="none" xmlns="http://www.w3.org/2000/svg">
<path fill-rule="evenodd" clip-rule="evenodd" d="M23.7 7H2.63333C1.185 7 0 8.3 0 9.88889V30.1111C0 31.7 1.185 33 2.63333 33H23.7C25.1483 33 26.3333 31.7 26.3333 30.1111V9.88889C26.3333 8.3 25.1483 7 23.7 7ZM23.7 30.1111H2.63333V9.88889H23.7V30.1111Z" fill="#FDC83A"/>
<path d="M22.1201 13.0667H3.95007V15.6667H22.1201V13.0667Z" fill="#FDC83A"/>
<path d="M22.1201 18.2667H3.95007V20.8667H22.1201V18.2667Z" fill="#FDC83A"/>
<path d="M22.1201 24.3333H3.95007V26.9333H22.1201V24.3333Z" fill="#FDC83A"/>
<rect x="18" y="6" width="11" height="9" fill="#FFFBFB"/>
<path d="M23 1C20.6208 1 18.3769 2.10392 16.7404 3.74039C15.1039 5.37687 14 7.62082 14 10C14 12.3792 15.1039 14.6231 16.7404 16.2596C18.3769 17.8961 20.6208 19 23 19C25.3792 19 27.6231 17.8961 29.2596 16.2596C30.8961 14.6231 32 12.3792 32 10C32 7.62082 30.8961 5.37687 29.2596 3.74039C27.6231 2.10392 25.3792 1 23 1ZM23 15C20.2373 15 18 12.7627 18 10C18 7.23728 20.2373 5 23 5C25.7627 5 28 7.23728 28 10C28 12.7627 25.7627 15 23 15Z" fill="#FDC83A" stroke="#FFFCFC" stroke-width="2"/>
<path d="M19.25 11.1251C19.8713 11.1251 20.375 10.6214 20.375 10.0001C20.375 9.37874 19.8713 8.87506 19.25 8.87506C18.6287 8.87506 18.125 9.37874 18.125 10.0001C18.125 10.6214 18.6287 11.1251 19.25 11.1251Z" fill="#FDC83A"/>
<path d="M23 11.1251C23.6213 11.1251 24.125 10.6214 24.125 10.0001C24.125 9.37874 23.6213 8.87506 23 8.87506C22.3787 8.87506 21.875 9.37874 21.875 10.0001C21.875 10.6214 22.3787 11.1251 23 11.1251Z" fill="#FDC83A"/>
<path d="M26.75 11.1251C27.3713 11.1251 27.875 10.6214 27.875 10.0001C27.875 9.37874 27.3713 8.87506 26.75 8.87506C26.1287 8.87506 25.625 9.37874 25.625 10.0001C25.625 10.6214 26.1287 11.1251 26.75 11.1251Z" fill="#FDC83A"/>
</svg>
