<svg width="50" height="51" viewBox="0 0 50 51" fill="none" xmlns="http://www.w3.org/2000/svg">
<g id="business" clip-path="url(#clip0_80_621)">
<path id="Vector" d="M24.9998 15.0833V6.75H4.1665V44.25H45.8332V15.0833H24.9998ZM12.4998 40.0833H8.33317V35.9167H12.4998V40.0833ZM12.4998 31.75H8.33317V27.5833H12.4998V31.75ZM12.4998 23.4167H8.33317V19.25H12.4998V23.4167ZM12.4998 15.0833H8.33317V10.9167H12.4998V15.0833ZM20.8332 40.0833H16.6665V35.9167H20.8332V40.0833ZM20.8332 31.75H16.6665V27.5833H20.8332V31.75ZM20.8332 23.4167H16.6665V19.25H20.8332V23.4167ZM20.8332 15.0833H16.6665V10.9167H20.8332V15.0833ZM41.6665 40.0833H24.9998V35.9167H29.1665V31.75H24.9998V27.5833H29.1665V23.4167H24.9998V19.25H41.6665V40.0833ZM37.4998 23.4167H33.3332V27.5833H37.4998V23.4167ZM37.4998 31.75H33.3332V35.9167H37.4998V31.75Z" fill="#4AA0D5"/>
</g>
<defs>
<clipPath id="clip0_80_621">
<rect width="50" height="50" fill="white" transform="translate(0 0.5)"/>
</clipPath>
</defs>
</svg>
