<svg width="34" height="30" viewBox="0 0 34 30" fill="none" xmlns="http://www.w3.org/2000/svg">
<g id="Group">
<g id="Group_2">
<path id="Vector" fill-rule="evenodd" clip-rule="evenodd" d="M30.3334 0H3.66671C1.83337 0 0.333374 1.5 0.333374 3.33333V26.6667C0.333374 28.5 1.83337 30 3.66671 30H30.3334C32.1667 30 33.6667 28.5 33.6667 26.6667V3.33333C33.6667 1.5 32.1667 0 30.3334 0ZM30.3334 26.6667H3.66671V3.33333H30.3334V26.6667Z" fill="#27CE7C"/>
<path id="Vector_2" fill-rule="evenodd" clip-rule="evenodd" d="M29.35 12.3667L26.9833 10L21.7 15.2833L19.35 12.9167L17 15.2667L21.7 20L29.35 12.3667Z" fill="#27CE7C"/>
<path id="Vector_3" d="M13.6667 6.66669H5.33337V10H13.6667V6.66669Z" fill="#27CE7C"/>
<path id="Vector_4" d="M13.6667 13.3333H5.33337V16.6666H13.6667V13.3333Z" fill="#27CE7C"/>
<path id="Vector_5" d="M13.6667 20H5.33337V23.3333H13.6667V20Z" fill="#27CE7C"/>
</g>
</g>
</svg>
