<svg width="34" height="34" viewBox="0 0 34 34" fill="none" xmlns="http://www.w3.org/2000/svg">
<g id="Group">
<g id="Group_2">
<path id="Vector" d="M16.6667 0C7.46667 0 0 7.46667 0 16.6667C0 25.8667 7.46667 33.3333 16.6667 33.3333C25.8667 33.3333 33.3333 25.8667 33.3333 16.6667C33.3333 7.46667 25.8667 0 16.6667 0ZM16.6667 30C9.3 30 3.33333 24.0333 3.33333 16.6667C3.33333 9.3 9.3 3.33333 16.6667 3.33333C24.0333 3.33333 30 9.3 30 16.6667C30 24.0333 24.0333 30 16.6667 30Z" fill="#4CA5F1"/>
<path id="Vector_2" d="M8.33325 19.1667C9.71396 19.1667 10.8333 18.0474 10.8333 16.6667C10.8333 15.286 9.71396 14.1667 8.33325 14.1667C6.95254 14.1667 5.83325 15.286 5.83325 16.6667C5.83325 18.0474 6.95254 19.1667 8.33325 19.1667Z" fill="#4CA5F1"/>
<path id="Vector_3" d="M16.6667 19.1667C18.0475 19.1667 19.1667 18.0474 19.1667 16.6667C19.1667 15.286 18.0475 14.1667 16.6667 14.1667C15.286 14.1667 14.1667 15.286 14.1667 16.6667C14.1667 18.0474 15.286 19.1667 16.6667 19.1667Z" fill="#4CA5F1"/>
<path id="Vector_4" d="M25 19.1667C26.3807 19.1667 27.5 18.0474 27.5 16.6667C27.5 15.286 26.3807 14.1667 25 14.1667C23.6193 14.1667 22.5 15.286 22.5 16.6667C22.5 18.0474 23.6193 19.1667 25 19.1667Z" fill="#4CA5F1"/>
</g>
</g>
</svg>
