<svg width="80" height="80" viewBox="0 0 80 80" fill="none" xmlns="http://www.w3.org/2000/svg">
<g id="Payment">
<path id="Vector (Stroke)" fill-rule="evenodd" clip-rule="evenodd" d="M40.0001 9.99996C23.4315 9.99996 10.0001 23.4314 10.0001 40C10.0001 56.5685 23.4315 70 40.0001 70C56.5686 70 70.0001 56.5685 70.0001 40C70.0001 23.4314 56.5686 9.99996 40.0001 9.99996ZM6.66675 40C6.66675 21.5905 21.5906 6.66663 40.0001 6.66663C58.4096 6.66663 73.3334 21.5905 73.3334 40C73.3334 58.4095 58.4096 73.3333 40.0001 73.3333C21.5906 73.3333 6.66675 58.4095 6.66675 40Z" fill="#27CE7C" stroke="#27CE7C" stroke-width="3" stroke-linecap="round" stroke-linejoin="round"/>
<path id="Vector" d="M47.1333 50.4667C45.7333 51.7334 43.6999 52.4334 40.9999 52.5667V56.6667H39.2333V52.6334C37.4999 52.5334 35.8666 52.2 34.3666 51.6334C32.8333 51.0667 31.6333 50.3 30.7666 49.4334L31.7999 47.4C32.6333 48.2 33.6999 48.8667 35.0333 49.4334C36.3666 49.9667 37.7666 50.3 39.2333 50.4V41.0667C37.5999 40.6667 36.2333 40.2334 35.1666 39.7667C34.0666 39.3 33.1666 38.6334 32.4666 37.7334C31.7333 36.8334 31.3666 35.6334 31.3666 34.2C31.3666 32.3667 32.0333 30.8334 33.3666 29.6C34.6999 28.3667 36.6666 27.6334 39.2666 27.4334V23.3334H41.0333V27.3667C42.3666 27.4 43.6999 27.6334 44.9666 28.0334C46.2333 28.4334 47.3333 28.9334 48.2333 29.5667L47.3333 31.6667C46.3666 31.0667 45.3333 30.5667 44.2333 30.2C43.1333 29.8334 42.0666 29.6334 40.9999 29.6V39C42.7333 39.4334 44.1666 39.8667 45.2999 40.3C46.3999 40.7334 47.3333 41.4 48.0999 42.3C48.8666 43.2 49.2333 44.3667 49.2333 45.8334C49.2333 47.6667 48.5333 49.2 47.1333 50.4667ZM35.3333 36.9C36.2333 37.5334 37.5333 38.0667 39.2333 38.5334V29.6667C37.4999 29.8334 36.1666 30.3 35.2666 31.1C34.3666 31.9334 33.9333 32.9 33.9333 34.1C33.9666 35.3334 34.3999 36.2667 35.3333 36.9ZM45.2333 48.9667C46.1666 48.2 46.6666 47.2 46.6666 46C46.6666 44.7334 46.1666 43.7667 45.1999 43.1334C44.2333 42.5 42.8333 41.9667 40.9999 41.5V50.3667C42.8666 50.2 44.2666 49.7334 45.2333 48.9667Z" fill="#27CE7C" stroke="#27CE7C" stroke-width="2"/>
</g>
</svg>
