<svg width="50" height="51" viewBox="0 0 50 51" fill="none" xmlns="http://www.w3.org/2000/svg">
<g id="person" clip-path="url(#clip0_80_625)">
<path id="Vector" d="M25.0002 13C27.2918 13 29.1668 14.875 29.1668 17.1667C29.1668 19.4583 27.2918 21.3333 25.0002 21.3333C22.7085 21.3333 20.8335 19.4583 20.8335 17.1667C20.8335 14.875 22.7085 13 25.0002 13ZM25.0002 33.8333C30.6252 33.8333 37.0835 36.5208 37.5002 38H12.5002C12.9793 36.5 19.396 33.8333 25.0002 33.8333ZM25.0002 8.83333C20.396 8.83333 16.6668 12.5625 16.6668 17.1667C16.6668 21.7708 20.396 25.5 25.0002 25.5C29.6043 25.5 33.3335 21.7708 33.3335 17.1667C33.3335 12.5625 29.6043 8.83333 25.0002 8.83333ZM25.0002 29.6667C19.4377 29.6667 8.3335 32.4583 8.3335 38V42.1667H41.6668V38C41.6668 32.4583 30.5627 29.6667 25.0002 29.6667Z" fill="#4AA0D5"/>
</g>
<defs>
<clipPath id="clip0_80_625">
<rect width="50" height="50" fill="white" transform="translate(0 0.5)"/>
</clipPath>
</defs>
</svg>
