<svg width="30" height="35" viewBox="0 0 30 35" fill="none" xmlns="http://www.w3.org/2000/svg">
<path id="Vector" d="M21.6667 18.3333C17.0667 18.3333 13.3333 22.0667 13.3333 26.6667C13.3333 31.2667 17.0667 35 21.6667 35C26.2667 35 30 31.2667 30 26.6667C30 22.0667 26.2667 18.3333 21.6667 18.3333ZM24.4167 30.5833L20.8333 27V21.6667H22.5V26.3167L25.5833 29.4L24.4167 30.5833ZM23.3333 3.33333H18.0333C17.3333 1.4 15.5 0 13.3333 0C11.1667 0 9.33333 1.4 8.63333 3.33333H3.33333C1.5 3.33333 0 4.83333 0 6.66667V31.6667C0 33.5 1.5 35 3.33333 35H13.5167C12.5333 34.05 11.7333 32.9167 11.15 31.6667H3.33333V6.66667H6.66667V11.6667H20V6.66667H23.3333V15.1333C24.5167 15.3 25.6333 15.65 26.6667 16.1333V6.66667C26.6667 4.83333 25.1667 3.33333 23.3333 3.33333ZM13.3333 6.66667C12.4167 6.66667 11.6667 5.91667 11.6667 5C11.6667 4.08333 12.4167 3.33333 13.3333 3.33333C14.25 3.33333 15 4.08333 15 5C15 5.91667 14.25 6.66667 13.3333 6.66667Z" fill="#FDC83A"/>
</svg>
