<svg width="34" height="34" viewBox="0 0 34 34" fill="none" xmlns="http://www.w3.org/2000/svg">
<path id="Vector" d="M16.6667 0C7.45 0 0 7.45 0 16.6667C0 25.8833 7.45 33.3333 16.6667 33.3333C25.8833 33.3333 33.3333 25.8833 33.3333 16.6667C33.3333 7.45 25.8833 0 16.6667 0ZM16.6667 30C9.31667 30 3.33333 24.0167 3.33333 16.6667C3.33333 9.31667 9.31667 3.33333 16.6667 3.33333C24.0167 3.33333 30 9.31667 30 16.6667C30 24.0167 24.0167 30 16.6667 30ZM22.65 8.33333L16.6667 14.3167L10.6833 8.33333L8.33333 10.6833L14.3167 16.6667L8.33333 22.65L10.6833 25L16.6667 19.0167L22.65 25L25 22.65L19.0167 16.6667L25 10.6833L22.65 8.33333Z" fill="#FD7A5E"/>
</svg>
