<svg width="33" height="38" viewBox="0 0 33 38" fill="none" xmlns="http://www.w3.org/2000/svg">
<path fill-rule="evenodd" clip-rule="evenodd" d="M23.4 11H2.6C1.17 11 0 12.35 0 14V35C0 36.65 1.17 38 2.6 38H23.4C24.83 38 26 36.65 26 35V14C26 12.35 24.83 11 23.4 11ZM23.4 35H2.6V14H23.4V35Z" fill="#FDC83A"/>
<path d="M21 17H5V20H21V17Z" fill="#FDC83A"/>
<path d="M21 23H5V26H21V23Z" fill="#FDC83A"/>
<path d="M21 29H5V32H21V29Z" fill="#FDC83A"/>
<rect x="10" width="23" height="23" rx="11.5" fill="#FFFBFB"/>
<path d="M21.6667 3.33331C17.0667 3.33331 13.3334 7.06665 13.3334 11.6666C13.3334 16.2666 17.0667 20 21.6667 20C26.2667 20 30 16.2666 30 11.6666C30 7.06665 26.2667 3.33331 21.6667 3.33331ZM24.4167 15.5833L20.8334 12V6.66665H22.5V11.3166L25.5834 14.4L24.4167 15.5833Z" fill="#FDC83A"/>
</svg>
