<svg width="74" height="70" viewBox="0 0 74 70" fill="none" xmlns="http://www.w3.org/2000/svg">
<g id="Group">
<g id="Group_2">
<path id="Vector" d="M73.6667 34.9667L65.5334 25.6667L66.6667 13.3667L54.6334 10.6333L48.3334 0L37 4.86667L25.6667 0L19.3667 10.6333L7.33337 13.3333L8.46671 25.6667L0.333374 34.9667L8.46671 44.2667L7.33337 56.6L19.3667 59.3333L25.6667 70L37 65.1L48.3334 69.9667L54.6334 59.3333L66.6667 56.6L65.5334 44.3L73.6667 34.9667ZM60.5 39.9L58.6334 42.0667L58.9 44.9L59.5 51.4L53.1667 52.8333L50.3667 53.4667L48.9 55.9333L45.6 61.5333L39.6667 58.9667L37 57.8333L34.3667 58.9667L28.4334 61.5333L25.1334 55.9667L23.6667 53.5L20.8667 52.8667L14.5334 51.4333L15.1334 44.9L15.4 42.0667L13.5334 39.9L9.23337 35L13.5334 30.0667L15.4 27.9L15.1 25.0333L14.5 18.5667L20.8334 17.1333L23.6334 16.5L25.1 14.0333L28.4 8.43333L34.3334 11L37 12.1333L39.6334 11L45.5667 8.43333L48.8667 14.0333L50.3334 16.5L53.1334 17.1333L59.4667 18.5667L58.8667 25.0667L58.6 27.9L60.4667 30.0667L64.7667 34.9667L60.5 39.9Z" fill="#4CA5F1"/>
<path id="Vector_2" d="M30.6333 40.8333L22.9 33.0666L17.9667 38.0333L30.6333 50.7333L55.1 26.1999L50.1667 21.2333L30.6333 40.8333Z" fill="#4CA5F1"/>
</g>
</g>
</svg>
